# xmcd CD database file
#
# Track frame offsets:
#	182
#	11210
#	19037
#	30615
#	42360
#	52647
#	66767
#	79592
#	90970
#	102327
#	113350
#	124910
#	134667
#	146292
#	156235
#	170370
#	184760
#	196102
#	213030
#	224957
#	235567
#	246162
#	260372
#	270715
#	276335
#
# Disc length: 3823 seconds
#
# Revision: 5
# Processed by: cddbd v1.5.2PL0 Copyright (c) Steve Scherf et al.
# Submitted via: CDex 1.40Beta8
#
DISCID=570eed19
DTITLE=Various Artist - 25 Country Classics - Volume 2
DYEAR=1991
DGENRE=Country
TTITLE0=Guy Mitchell - Singin' The Blues
TTITLE1=Hello Walls - Roy Drusky
TTITLE2=Patsy Cline - I've Lost At Love Again
TTITLE3=Frankie Laine - Mule Train
TTITLE4=Barbara Mandrell - Kaw-Liga
TTITLE5=George Jones - Wedding Bells
TTITLE6=Faron Young - Four In The Morning
TTITLE7=Roy Drusky - Blue Eyes Cryin' In The Rain
TTITLE8=Waylon Jennings - Sally Was A Good Old Girl
TTITLE9=Dolly Parton - It Wasn't God Who Made Honky Tonk Angels
TTITLE10=Willie Nelson - Touch Me
TTITLE11=Barbara Mandrell - Release Me
TTITLE12=Guy Mitchell - Heartaches By The Number
TTITLE13=Stonewall Jackson - Shake 'em Up Roll 'em
TTITLE14=Kenny Rogers - Sunshine
TTITLE15=George Jones - Things Have Gone To Pieces
TTITLE16=Razy Bailey - 9,999,999 Tears
TTITLE17=Willie Nelson - Let My Mind Wander
TTITLE18=Waylon Jennings - Crying
TTITLE19=Patsy Cline - Honky Tonk Merry Go Round
TTITLE20=Kenny Rogers - Ticket To Nowhere
TTITLE21=Stonewall Jackson - Keep Off The Grass
TTITLE22=Carl Perkins - Daddy Sang Bass
TTITLE23=Willie Nelson - The Ghost
TTITLE24=Faron Young - If You Ain't Lovin'
EXTD=YEAR: 1991 ID3G: 2
EXTT0=
EXTT1=
EXTT2=
EXTT3=
EXTT4=
EXTT5=
EXTT6=
EXTT7=
EXTT8=
EXTT9=
EXTT10=
EXTT11=
EXTT12=
EXTT13=
EXTT14=
EXTT15=
EXTT16=
EXTT17=
EXTT18=
EXTT19=
EXTT20=
EXTT21=
EXTT22=
EXTT23=
EXTT24=
PLAYORDER=
